<?xml version="1.0" encoding="UTF-8"?>
<svg width="700pt" height="700pt" version="1.1" viewBox="0 0 700 700" xmlns="http://www.w3.org/2000/svg" xmlns:xlink="http://www.w3.org/1999/xlink">
 <defs>
  <symbol id="g" overflow="visible">
   <path d="m39.078-2.3281c-2.0117 1.043-4.1094 1.8281-6.2969 2.3594s-4.4648 0.79688-6.8281 0.79688c-7.0859 0-12.699-1.9766-16.844-5.9375-4.1367-3.957-6.2031-9.3281-6.2031-16.109 0-6.7891 2.0664-12.164 6.2031-16.125 4.1445-3.9688 9.7578-5.9531 16.844-5.9531 2.3633 0 4.6406 0.26562 6.8281 0.79688s4.2852 1.3242 6.2969 2.375v8.7969c-2.0312-1.3828-4.0391-2.3984-6.0156-3.0469-1.9688-0.64453-4.0469-0.96875-6.2344-0.96875-3.9062 0-6.9844 1.2578-9.2344 3.7656-2.2422 2.5-3.3594 5.9531-3.3594 10.359 0 4.3867 1.1172 7.8359 3.3594 10.344 2.25 2.5 5.3281 3.75 9.2344 3.75 2.1875 0 4.2656-0.32031 6.2344-0.96875 1.9766-0.64453 3.9844-1.6602 6.0156-3.0469z"/>
  </symbol>
  <symbol id="f" overflow="visible">
   <path d="m16.031-40.953v9.0625h10.516v7.2812h-10.516v13.531c0 1.4805 0.28906 2.4805 0.875 3 0.59375 0.52344 1.7656 0.78125 3.5156 0.78125h5.2344v7.2969h-8.7344c-4.0312 0-6.8867-0.83594-8.5625-2.5156-1.6797-1.6875-2.5156-4.5391-2.5156-8.5625v-13.531h-5.0781v-7.2812h5.0781v-9.0625z"/>
  </symbol>
  <symbol id="e" overflow="visible">
   <path d="m26.594-27.234v-17.078h10.266v44.312h-10.266v-4.6094c-1.3984 1.875-2.9453 3.25-4.6406 4.125-1.6875 0.875-3.6406 1.3125-5.8594 1.3125-3.9297 0-7.1562-1.5625-9.6875-4.6875-2.5234-3.125-3.7812-7.1445-3.7812-12.062 0-4.9141 1.2578-8.9375 3.7812-12.062 2.5312-3.125 5.7578-4.6875 9.6875-4.6875 2.1953 0 4.1445 0.44531 5.8438 1.3281 1.707 0.88672 3.2578 2.2578 4.6562 4.1094zm-6.7188 20.656c2.1875 0 3.8516-0.79688 5-2.3906 1.1445-1.5938 1.7188-3.9102 1.7188-6.9531 0-3.0391-0.57422-5.3594-1.7188-6.9531-1.1484-1.5938-2.8125-2.3906-5-2.3906-2.168 0-3.8242 0.79688-4.9688 2.3906-1.1484 1.5938-1.7188 3.9141-1.7188 6.9531 0 3.043 0.57031 5.3594 1.7188 6.9531 1.1445 1.5938 2.8008 2.3906 4.9688 2.3906z"/>
  </symbol>
  <symbol id="a" overflow="visible">
   <path d="m21.875-6.5781c2.1758 0 3.8359-0.79688 4.9844-2.3906 1.1562-1.5938 1.7344-3.9102 1.7344-6.9531 0-3.0391-0.57812-5.3594-1.7344-6.9531-1.1484-1.5938-2.8086-2.3906-4.9844-2.3906-2.1875 0-3.8672 0.80469-5.0312 2.4062-1.168 1.6055-1.75 3.918-1.75 6.9375 0 3.0234 0.58203 5.3359 1.75 6.9375 1.1641 1.6055 2.8438 2.4062 5.0312 2.4062zm-6.7812-20.656c1.4062-1.8516 2.9609-3.2227 4.6719-4.1094 1.707-0.88281 3.6719-1.3281 5.8906-1.3281 3.9375 0 7.1641 1.5625 9.6875 4.6875 2.5195 3.125 3.7812 7.1484 3.7812 12.062 0 4.918-1.2617 8.9375-3.7812 12.062-2.5234 3.125-5.75 4.6875-9.6875 4.6875-2.2188 0-4.1836-0.44531-5.8906-1.3281-1.7109-0.88281-3.2656-2.2539-4.6719-4.1094v4.6094h-10.188v-44.312h10.188z"/>
  </symbol>
  <symbol id="d" overflow="visible">
   <path d="m5.3594-42.516h10.953v42.516h-10.953z"/>
  </symbol>
  <symbol id="c" overflow="visible">
   <path d="m4.9062-44.312h10.188v44.312h-10.188z"/>
  </symbol>
  <symbol id="b" overflow="visible">
   <path d="m1.7344-42.516h10.516l7.3438 30.891 7.2969-30.891h10.562l7.2969 30.891 7.3438-30.891h10.422l-10.031 42.516h-12.641l-7.7188-32.328-7.625 32.328h-12.656z"/>
  </symbol>
 </defs>
 <g>
  <path d="m431.67 245h-163.34c-6.4414 0-11.664-5.2227-11.664-11.668v-35c0.003906-6.1836 2.4648-12.117 6.8398-16.492s10.305-6.832 16.492-6.8398h140c6.1875 0.007812 12.117 2.4688 16.492 6.8438 4.375 4.3711 6.8359 10.305 6.8398 16.488v35c0 3.0938-1.2266 6.0625-3.4141 8.25-2.1914 2.1875-5.1562 3.418-8.25 3.418zm-151.67-23.332h140v-23.336h-140z"/>
  <path d="m408.33 198.33h-116.66c-6.4453 0-11.668-5.2227-11.668-11.664v-35c0.007812-6.1875 2.4648-12.117 6.8398-16.492s10.309-6.8359 16.492-6.8438h93.336c6.1836 0.007813 12.117 2.4688 16.488 6.8438 4.375 4.375 6.8359 10.305 6.8438 16.492v35c0 3.0938-1.2305 6.0586-3.418 8.25-2.1875 2.1875-5.1562 3.4141-8.25 3.4141zm-105-23.332h93.332l0.003907-23.332h-93.336z"/>
  <path d="m385 151.67h-70c-3.4961-0.003907-6.8047-1.5703-9.0195-4.2734-2.2148-2.7031-3.1016-6.2578-2.4141-9.6836l23.332-116.67c1.0938-5.4492 5.875-9.375 11.434-9.375h23.336c5.5586 0 10.34 3.9258 11.434 9.375l23.332 116.67c0.6875 3.4258-0.19922 6.9805-2.4141 9.6836-2.2148 2.7031-5.5234 4.2695-9.0195 4.2734zm-55.766-23.332 41.531-0.003907-18.668-93.332h-4.1992z"/>
  <path d="m431.67 466.67h-163.34c-6.1836-0.007813-12.117-2.4688-16.492-6.8438s-6.832-10.305-6.8398-16.492v-116.66c0.007812-6.1875 2.4648-12.117 6.8398-16.492s10.309-6.8359 16.492-6.8438h163.34c6.1836 0.007813 12.117 2.4688 16.488 6.8438 4.375 4.375 6.8359 10.305 6.8438 16.492v116.66c-0.007812 6.1875-2.4688 12.117-6.8438 16.492-4.3711 4.375-10.305 6.8359-16.488 6.8438zm-163.34-140v116.66h163.35l-0.011719-116.66z"/>
  <path d="m466.67 548.33h-233.34c-9.2773-0.007812-18.176-3.6992-24.734-10.262-6.5625-6.5625-10.254-15.457-10.266-24.738v-208.05c0.027344-22.168 8.8438-43.422 24.516-59.094 15.676-15.676 36.93-24.492 59.094-24.516h136.11c22.168 0.023437 43.422 8.8398 59.098 24.512 15.676 15.676 24.492 36.93 24.52 59.098v208.05c-0.011719 9.2812-3.7031 18.176-10.266 24.738-6.5586 6.5625-15.457 10.254-24.734 10.262zm-184.73-303.33c-15.98 0.019531-31.301 6.375-42.598 17.676-11.301 11.301-17.66 26.621-17.676 42.602v208.05c0.007812 6.4414 5.2266 11.66 11.664 11.668h233.34c6.4414-0.003906 11.66-5.2266 11.664-11.668v-208.05c-0.019531-15.98-6.375-31.305-17.676-42.602-11.301-11.301-26.625-17.656-42.605-17.676z"/>
  <path d="m490 169.17c-12.371-0.015625-24.234-4.9336-32.984-13.684s-13.668-20.613-13.684-32.984c0-21.859 30.875-67.668 37.062-76.633 2.293-2.9844 5.8438-4.7344 9.6055-4.7344s7.3125 1.75 9.6055 4.7344c6.1836 8.9648 37.062 54.773 37.062 76.633-0.015625 12.371-4.9336 24.234-13.684 32.984s-20.613 13.668-32.984 13.684zm0-95.418c-12.441 19.887-23.332 41.027-23.332 48.75 0 8.3359 4.4453 16.039 11.664 20.207s16.117 4.168 23.336 0 11.664-11.871 11.664-20.207c0-7.7344-10.879-28.875-23.332-48.75z"/>
  <use x="70" y="735" xlink:href="#g"/>
  <use x="220.503906" y="735" xlink:href="#f"/>
  <use x="287.953125" y="735" xlink:href="#e"/>
  <use x="350.015625" y="735" xlink:href="#a"/>
  <use x="450.105469" y="735" xlink:href="#d"/>
  <use x="513.566406" y="735" xlink:href="#a"/>
  <use x="594.6875" y="735" xlink:href="#c"/>
  <use x="634.992187" y="735" xlink:href="#b"/>
 </g>
</svg>
